# xmcd
#
# Track frame offsets:
#	150
#	14800
#	27363
#	38911
#	52861
#	64627
#	80524
#	94401
#	109306
#	121780
#
# Disc length: 1795 seconds
#
# Revision: 1
# Processed by: cddbd v1.5.2PL0 Copyright (c) Steve Scherf et al.
# Submitted via: audiograbber 1.83.01
#
DISCID=8007010a
DTITLE=Various Artist - Country Hits of the 70s
DYEAR=2011
DGENRE=Country
TTITLE0=Lynn Anderson - Rose Garden
TTITLE1=Merle Haggard - The Fighting Side of Me
TTITLE2=Freddy Fender - Before the Next Teardrop Falls
TTITLE3=Moe Bandy - I Cheated Right Out of You
TTITLE4=Donna Fargo - The Happiest Girl in the Whole U.S.A
TTITLE5=Tanya Tucker - Here's Some Love
TTITLE6=Mickey Gilley - Don't the Girls All Get Prettier at Closing TimeDon't t
TTITLE6=he Girls All Get Prettier at Closing Time
TTITLE7=Jeanne Pruett - Satin Sheets
TTITLE8=Johnny Paycheck - Take this Job and Shove It
TTITLE9=T.G. Sheppard - Devil in the Bottle
EXTD=
EXTT0=
EXTT1=
EXTT2=
EXTT3=
EXTT4=
EXTT5=
EXTT6=
EXTT7=
EXTT8=
EXTT9=
PLAYORDER=
